<mxfile host="app.diagrams.net" modified="2023-06-13T23:43:48.213Z" agent="Mozilla/5.0 (Windows NT 10.0; Win64; x64) AppleWebKit/537.36 (KHTML, like Gecko) Chrome/114.0.0.0 Safari/537.36" etag="V-gFHpMP3iWATylvgoqs" version="21.3.8" type="device">
  <diagram name="PÃ¡gina-1" id="RZ1oVHwpQ-7bSi6WuAm1">
    <mxGraphModel dx="1434" dy="777" grid="1" gridSize="10" guides="1" tooltips="1" connect="1" arrows="1" fold="1" page="1" pageScale="1" pageWidth="827" pageHeight="1169" math="0" shadow="0">
      <root>
        <mxCell id="0" />
        <mxCell id="1" parent="0" />
        <mxCell id="C3cKzzeTr00NmLCo-IGk-11" value="" style="edgeStyle=orthogonalEdgeStyle;rounded=0;orthogonalLoop=1;jettySize=auto;html=1;" edge="1" parent="1" source="C3cKzzeTr00NmLCo-IGk-3" target="C3cKzzeTr00NmLCo-IGk-8">
          <mxGeometry relative="1" as="geometry" />
        </mxCell>
        <mxCell id="C3cKzzeTr00NmLCo-IGk-3" value="LOGIN" style="html=1;whiteSpace=wrap;" vertex="1" parent="1">
          <mxGeometry x="40" y="115" width="110" height="50" as="geometry" />
        </mxCell>
        <mxCell id="C3cKzzeTr00NmLCo-IGk-4" value="CADASTRO" style="swimlane;fontStyle=0;childLayout=stackLayout;horizontal=1;startSize=26;fillColor=none;horizontalStack=0;resizeParent=1;resizeParentMax=0;resizeLast=0;collapsible=1;marginBottom=0;whiteSpace=wrap;html=1;" vertex="1" parent="1">
          <mxGeometry x="360" y="180" width="140" height="104" as="geometry" />
        </mxCell>
        <mxCell id="C3cKzzeTr00NmLCo-IGk-5" value="+ID_USUARIO" style="text;strokeColor=none;fillColor=none;align=left;verticalAlign=top;spacingLeft=4;spacingRight=4;overflow=hidden;rotatable=0;points=[[0,0.5],[1,0.5]];portConstraint=eastwest;whiteSpace=wrap;html=1;" vertex="1" parent="C3cKzzeTr00NmLCo-IGk-4">
          <mxGeometry y="26" width="140" height="26" as="geometry" />
        </mxCell>
        <mxCell id="C3cKzzeTr00NmLCo-IGk-6" value="+NOME_USUARIO" style="text;strokeColor=none;fillColor=none;align=left;verticalAlign=top;spacingLeft=4;spacingRight=4;overflow=hidden;rotatable=0;points=[[0,0.5],[1,0.5]];portConstraint=eastwest;whiteSpace=wrap;html=1;" vertex="1" parent="C3cKzzeTr00NmLCo-IGk-4">
          <mxGeometry y="52" width="140" height="26" as="geometry" />
        </mxCell>
        <mxCell id="C3cKzzeTr00NmLCo-IGk-7" value="+SENHA_USUARIO" style="text;strokeColor=none;fillColor=none;align=left;verticalAlign=top;spacingLeft=4;spacingRight=4;overflow=hidden;rotatable=0;points=[[0,0.5],[1,0.5]];portConstraint=eastwest;whiteSpace=wrap;html=1;" vertex="1" parent="C3cKzzeTr00NmLCo-IGk-4">
          <mxGeometry y="78" width="140" height="26" as="geometry" />
        </mxCell>
        <mxCell id="C3cKzzeTr00NmLCo-IGk-12" value="" style="edgeStyle=orthogonalEdgeStyle;rounded=0;orthogonalLoop=1;jettySize=auto;html=1;entryX=0.007;entryY=0.115;entryDx=0;entryDy=0;entryPerimeter=0;fillColor=#60a917;strokeColor=#2D7600;" edge="1" parent="1" source="C3cKzzeTr00NmLCo-IGk-8" target="C3cKzzeTr00NmLCo-IGk-6">
          <mxGeometry relative="1" as="geometry">
            <Array as="points">
              <mxPoint x="260" y="235" />
            </Array>
          </mxGeometry>
        </mxCell>
        <mxCell id="C3cKzzeTr00NmLCo-IGk-14" value="" style="edgeStyle=orthogonalEdgeStyle;rounded=0;orthogonalLoop=1;jettySize=auto;html=1;fillColor=#a20025;strokeColor=#6F0000;" edge="1" parent="1" source="C3cKzzeTr00NmLCo-IGk-8" target="C3cKzzeTr00NmLCo-IGk-13">
          <mxGeometry relative="1" as="geometry">
            <Array as="points">
              <mxPoint x="260" y="70" />
            </Array>
          </mxGeometry>
        </mxCell>
        <mxCell id="C3cKzzeTr00NmLCo-IGk-8" value="JA POSSUI&amp;nbsp;&lt;br&gt;CADASTRO" style="strokeWidth=2;html=1;shape=mxgraph.flowchart.decision;whiteSpace=wrap;" vertex="1" parent="1">
          <mxGeometry x="210" y="90" width="100" height="100" as="geometry" />
        </mxCell>
        <mxCell id="C3cKzzeTr00NmLCo-IGk-19" style="edgeStyle=orthogonalEdgeStyle;rounded=0;orthogonalLoop=1;jettySize=auto;html=1;entryX=0.557;entryY=0.019;entryDx=0;entryDy=0;entryPerimeter=0;" edge="1" parent="1" source="C3cKzzeTr00NmLCo-IGk-13" target="C3cKzzeTr00NmLCo-IGk-4">
          <mxGeometry relative="1" as="geometry">
            <Array as="points">
              <mxPoint x="430" y="182" />
            </Array>
          </mxGeometry>
        </mxCell>
        <mxCell id="C3cKzzeTr00NmLCo-IGk-13" value="&lt;p style=&quot;margin:0px;margin-top:4px;text-align:center;&quot;&gt;&lt;b&gt;CADASTRAR&lt;/b&gt;&lt;/p&gt;&lt;hr size=&quot;1&quot;&gt;&lt;p style=&quot;margin:0px;margin-left:4px;&quot;&gt;+ ID_USUARIO&lt;/p&gt;&lt;p style=&quot;margin:0px;margin-left:4px;&quot;&gt;NOME_USUARIO&lt;/p&gt;&lt;p style=&quot;margin:0px;margin-left:4px;&quot;&gt;SENHA_USUARIO&lt;/p&gt;&lt;hr size=&quot;1&quot;&gt;&lt;p style=&quot;margin:0px;margin-left:4px;&quot;&gt;+ method(): Type&lt;/p&gt;" style="verticalAlign=top;align=left;overflow=fill;fontSize=12;fontFamily=Helvetica;html=1;whiteSpace=wrap;" vertex="1" parent="1">
          <mxGeometry x="350" y="40" width="160" height="120" as="geometry" />
        </mxCell>
        <mxCell id="C3cKzzeTr00NmLCo-IGk-21" value="" style="edgeStyle=orthogonalEdgeStyle;rounded=0;orthogonalLoop=1;jettySize=auto;html=1;fillColor=#60a917;strokeColor=#2D7600;" edge="1" parent="1" source="C3cKzzeTr00NmLCo-IGk-17" target="C3cKzzeTr00NmLCo-IGk-20">
          <mxGeometry relative="1" as="geometry">
            <Array as="points">
              <mxPoint x="660" y="350" />
              <mxPoint x="395" y="350" />
            </Array>
          </mxGeometry>
        </mxCell>
        <mxCell id="C3cKzzeTr00NmLCo-IGk-22" style="edgeStyle=orthogonalEdgeStyle;rounded=0;orthogonalLoop=1;jettySize=auto;html=1;fillColor=#a20025;strokeColor=#6F0000;" edge="1" parent="1" source="C3cKzzeTr00NmLCo-IGk-17" target="C3cKzzeTr00NmLCo-IGk-3">
          <mxGeometry relative="1" as="geometry">
            <Array as="points">
              <mxPoint x="660" y="20" />
              <mxPoint x="95" y="20" />
            </Array>
          </mxGeometry>
        </mxCell>
        <mxCell id="C3cKzzeTr00NmLCo-IGk-17" value="LOGIN APROVADO/&lt;br&gt;NEGADO" style="strokeWidth=2;html=1;shape=mxgraph.flowchart.decision;whiteSpace=wrap;" vertex="1" parent="1">
          <mxGeometry x="610" y="195" width="100" height="100" as="geometry" />
        </mxCell>
        <mxCell id="C3cKzzeTr00NmLCo-IGk-18" style="edgeStyle=orthogonalEdgeStyle;rounded=0;orthogonalLoop=1;jettySize=auto;html=1;entryX=0;entryY=0.5;entryDx=0;entryDy=0;entryPerimeter=0;" edge="1" parent="1" source="C3cKzzeTr00NmLCo-IGk-6" target="C3cKzzeTr00NmLCo-IGk-17">
          <mxGeometry relative="1" as="geometry">
            <Array as="points">
              <mxPoint x="500" y="230" />
              <mxPoint x="590" y="230" />
              <mxPoint x="590" y="245" />
            </Array>
          </mxGeometry>
        </mxCell>
        <mxCell id="C3cKzzeTr00NmLCo-IGk-25" style="edgeStyle=orthogonalEdgeStyle;rounded=0;orthogonalLoop=1;jettySize=auto;html=1;entryX=0.5;entryY=0;entryDx=0;entryDy=0;" edge="1" parent="1" source="C3cKzzeTr00NmLCo-IGk-20" target="C3cKzzeTr00NmLCo-IGk-24">
          <mxGeometry relative="1" as="geometry">
            <Array as="points">
              <mxPoint x="90" y="470" />
            </Array>
          </mxGeometry>
        </mxCell>
        <mxCell id="C3cKzzeTr00NmLCo-IGk-28" style="edgeStyle=orthogonalEdgeStyle;rounded=0;orthogonalLoop=1;jettySize=auto;html=1;entryX=0.431;entryY=0;entryDx=0;entryDy=0;entryPerimeter=0;" edge="1" parent="1" source="C3cKzzeTr00NmLCo-IGk-20" target="C3cKzzeTr00NmLCo-IGk-26">
          <mxGeometry relative="1" as="geometry">
            <mxPoint x="250" y="610" as="targetPoint" />
            <Array as="points">
              <mxPoint x="259" y="500" />
            </Array>
          </mxGeometry>
        </mxCell>
        <mxCell id="C3cKzzeTr00NmLCo-IGk-33" style="edgeStyle=orthogonalEdgeStyle;rounded=0;orthogonalLoop=1;jettySize=auto;html=1;entryX=0.544;entryY=-0.022;entryDx=0;entryDy=0;entryPerimeter=0;" edge="1" parent="1" source="C3cKzzeTr00NmLCo-IGk-20" target="C3cKzzeTr00NmLCo-IGk-29">
          <mxGeometry relative="1" as="geometry">
            <mxPoint x="550" y="610" as="targetPoint" />
            <Array as="points">
              <mxPoint x="527" y="540" />
            </Array>
          </mxGeometry>
        </mxCell>
        <mxCell id="C3cKzzeTr00NmLCo-IGk-34" style="edgeStyle=orthogonalEdgeStyle;rounded=0;orthogonalLoop=1;jettySize=auto;html=1;entryX=0.5;entryY=0;entryDx=0;entryDy=0;" edge="1" parent="1" source="C3cKzzeTr00NmLCo-IGk-20" target="C3cKzzeTr00NmLCo-IGk-31">
          <mxGeometry relative="1" as="geometry">
            <Array as="points">
              <mxPoint x="690" y="510" />
            </Array>
          </mxGeometry>
        </mxCell>
        <mxCell id="C3cKzzeTr00NmLCo-IGk-53" style="edgeStyle=orthogonalEdgeStyle;rounded=0;orthogonalLoop=1;jettySize=auto;html=1;entryX=0.5;entryY=1;entryDx=0;entryDy=0;" edge="1" parent="1" source="C3cKzzeTr00NmLCo-IGk-20" target="C3cKzzeTr00NmLCo-IGk-3">
          <mxGeometry relative="1" as="geometry">
            <mxPoint x="90" y="190" as="targetPoint" />
            <Array as="points">
              <mxPoint x="95" y="440" />
            </Array>
          </mxGeometry>
        </mxCell>
        <mxCell id="C3cKzzeTr00NmLCo-IGk-20" value="DESCONECT&lt;br&gt;&lt;br&gt;ESTOQUE&lt;br&gt;&lt;br&gt;VENDA&lt;br&gt;&lt;br&gt;ADMINISTRATIVO&lt;br&gt;&lt;br&gt;RELATORIOS" style="rounded=1;whiteSpace=wrap;html=1;absoluteArcSize=1;arcSize=14;strokeWidth=2;" vertex="1" parent="1">
          <mxGeometry x="320" y="430" width="150" height="140" as="geometry" />
        </mxCell>
        <mxCell id="C3cKzzeTr00NmLCo-IGk-44" style="edgeStyle=orthogonalEdgeStyle;rounded=0;orthogonalLoop=1;jettySize=auto;html=1;" edge="1" parent="1" source="C3cKzzeTr00NmLCo-IGk-24" target="C3cKzzeTr00NmLCo-IGk-36">
          <mxGeometry relative="1" as="geometry" />
        </mxCell>
        <mxCell id="C3cKzzeTr00NmLCo-IGk-24" value="&lt;p style=&quot;margin:0px;margin-top:4px;text-align:center;text-decoration:underline;&quot;&gt;&lt;b&gt;Estoque&amp;nbsp;&lt;/b&gt;&lt;/p&gt;&lt;hr&gt;&lt;p style=&quot;margin:0px;margin-left:8px;&quot;&gt;+Produtos&lt;br&gt;+Entrada e Saida&lt;br&gt;+Relatorio&lt;/p&gt;" style="verticalAlign=top;align=left;overflow=fill;fontSize=12;fontFamily=Helvetica;html=1;whiteSpace=wrap;" vertex="1" parent="1">
          <mxGeometry x="10" y="630" width="160" height="90" as="geometry" />
        </mxCell>
        <mxCell id="C3cKzzeTr00NmLCo-IGk-45" style="edgeStyle=orthogonalEdgeStyle;rounded=0;orthogonalLoop=1;jettySize=auto;html=1;entryX=0.5;entryY=0;entryDx=0;entryDy=0;" edge="1" parent="1" source="C3cKzzeTr00NmLCo-IGk-26" target="C3cKzzeTr00NmLCo-IGk-37">
          <mxGeometry relative="1" as="geometry" />
        </mxCell>
        <mxCell id="C3cKzzeTr00NmLCo-IGk-26" value="&lt;p style=&quot;margin:0px;margin-top:4px;text-align:center;text-decoration:underline;&quot;&gt;&lt;b&gt;Venda&lt;/b&gt;&lt;/p&gt;&lt;hr&gt;&lt;p style=&quot;margin:0px;margin-left:8px;&quot;&gt;+cliente&lt;/p&gt;&lt;p style=&quot;margin:0px;margin-left:8px;&quot;&gt;+Venda&lt;br&gt;+Nota&lt;br&gt;&lt;br&gt;&lt;/p&gt;" style="verticalAlign=top;align=left;overflow=fill;fontSize=12;fontFamily=Helvetica;html=1;whiteSpace=wrap;" vertex="1" parent="1">
          <mxGeometry x="190" y="630" width="160" height="90" as="geometry" />
        </mxCell>
        <mxCell id="C3cKzzeTr00NmLCo-IGk-46" style="edgeStyle=orthogonalEdgeStyle;rounded=0;orthogonalLoop=1;jettySize=auto;html=1;entryX=0.5;entryY=0;entryDx=0;entryDy=0;" edge="1" parent="1" source="C3cKzzeTr00NmLCo-IGk-29" target="C3cKzzeTr00NmLCo-IGk-39">
          <mxGeometry relative="1" as="geometry" />
        </mxCell>
        <mxCell id="C3cKzzeTr00NmLCo-IGk-29" value="&lt;p style=&quot;margin:0px;margin-top:4px;text-align:center;text-decoration:underline;&quot;&gt;&lt;b&gt;Relatorio&lt;/b&gt;&lt;/p&gt;&lt;hr&gt;&lt;p style=&quot;margin:0px;margin-left:8px;&quot;&gt;+Relatorio venda&lt;/p&gt;&lt;p style=&quot;margin:0px;margin-left:8px;&quot;&gt;+Relatorio compra&lt;br&gt;+Relatorio caixa&lt;br&gt;&lt;br&gt;&lt;/p&gt;" style="verticalAlign=top;align=left;overflow=fill;fontSize=12;fontFamily=Helvetica;html=1;whiteSpace=wrap;" vertex="1" parent="1">
          <mxGeometry x="440" y="630" width="160" height="90" as="geometry" />
        </mxCell>
        <mxCell id="C3cKzzeTr00NmLCo-IGk-47" style="edgeStyle=orthogonalEdgeStyle;rounded=0;orthogonalLoop=1;jettySize=auto;html=1;entryX=0.5;entryY=0;entryDx=0;entryDy=0;" edge="1" parent="1" source="C3cKzzeTr00NmLCo-IGk-31" target="C3cKzzeTr00NmLCo-IGk-41">
          <mxGeometry relative="1" as="geometry" />
        </mxCell>
        <mxCell id="C3cKzzeTr00NmLCo-IGk-31" value="&lt;p style=&quot;margin:0px;margin-top:4px;text-align:center;text-decoration:underline;&quot;&gt;&lt;b&gt;AdministraÃ§ao&lt;/b&gt;&lt;/p&gt;&lt;hr&gt;&lt;p style=&quot;margin:0px;margin-left:8px;&quot;&gt;+Alterar dados&lt;/p&gt;&lt;p style=&quot;margin:0px;margin-left:8px;&quot;&gt;+Cadastrar clientes&lt;br&gt;+Cadastrar usuario&lt;br&gt;&lt;br&gt;&lt;/p&gt;" style="verticalAlign=top;align=left;overflow=fill;fontSize=12;fontFamily=Helvetica;html=1;whiteSpace=wrap;" vertex="1" parent="1">
          <mxGeometry x="610" y="630" width="160" height="90" as="geometry" />
        </mxCell>
        <mxCell id="C3cKzzeTr00NmLCo-IGk-48" style="edgeStyle=orthogonalEdgeStyle;rounded=0;orthogonalLoop=1;jettySize=auto;html=1;entryX=0.5;entryY=1;entryDx=0;entryDy=0;" edge="1" parent="1" source="C3cKzzeTr00NmLCo-IGk-36" target="C3cKzzeTr00NmLCo-IGk-20">
          <mxGeometry relative="1" as="geometry">
            <mxPoint x="360" y="580" as="targetPoint" />
            <Array as="points">
              <mxPoint x="90" y="930" />
              <mxPoint x="400" y="930" />
              <mxPoint x="400" y="570" />
            </Array>
          </mxGeometry>
        </mxCell>
        <mxCell id="C3cKzzeTr00NmLCo-IGk-36" value="processos" style="rounded=1;whiteSpace=wrap;html=1;absoluteArcSize=1;arcSize=14;strokeWidth=2;" vertex="1" parent="1">
          <mxGeometry x="40" y="790" width="100" height="100" as="geometry" />
        </mxCell>
        <mxCell id="C3cKzzeTr00NmLCo-IGk-49" style="edgeStyle=orthogonalEdgeStyle;rounded=0;orthogonalLoop=1;jettySize=auto;html=1;" edge="1" parent="1" source="C3cKzzeTr00NmLCo-IGk-37">
          <mxGeometry relative="1" as="geometry">
            <mxPoint x="400" y="580" as="targetPoint" />
          </mxGeometry>
        </mxCell>
        <mxCell id="C3cKzzeTr00NmLCo-IGk-37" value="Processos" style="rounded=1;whiteSpace=wrap;html=1;absoluteArcSize=1;arcSize=14;strokeWidth=2;" vertex="1" parent="1">
          <mxGeometry x="220" y="790" width="100" height="100" as="geometry" />
        </mxCell>
        <mxCell id="C3cKzzeTr00NmLCo-IGk-50" style="edgeStyle=orthogonalEdgeStyle;rounded=0;orthogonalLoop=1;jettySize=auto;html=1;" edge="1" parent="1" source="C3cKzzeTr00NmLCo-IGk-39">
          <mxGeometry relative="1" as="geometry">
            <mxPoint x="400" y="570" as="targetPoint" />
          </mxGeometry>
        </mxCell>
        <mxCell id="C3cKzzeTr00NmLCo-IGk-39" value="Processos" style="rounded=1;whiteSpace=wrap;html=1;absoluteArcSize=1;arcSize=14;strokeWidth=2;" vertex="1" parent="1">
          <mxGeometry x="470" y="790" width="100" height="100" as="geometry" />
        </mxCell>
        <mxCell id="C3cKzzeTr00NmLCo-IGk-52" style="edgeStyle=orthogonalEdgeStyle;rounded=0;orthogonalLoop=1;jettySize=auto;html=1;" edge="1" parent="1" source="C3cKzzeTr00NmLCo-IGk-41">
          <mxGeometry relative="1" as="geometry">
            <mxPoint x="400" y="580" as="targetPoint" />
            <Array as="points">
              <mxPoint x="690" y="930" />
              <mxPoint x="401" y="930" />
            </Array>
          </mxGeometry>
        </mxCell>
        <mxCell id="C3cKzzeTr00NmLCo-IGk-41" value="Processos" style="rounded=1;whiteSpace=wrap;html=1;absoluteArcSize=1;arcSize=14;strokeWidth=2;" vertex="1" parent="1">
          <mxGeometry x="640" y="790" width="100" height="100" as="geometry" />
        </mxCell>
      </root>
    </mxGraphModel>
  </diagram>
</mxfile>
